<svg width="26" height="24" viewBox="0 0 26 24" fill="none" xmlns="http://www.w3.org/2000/svg">
<path d="M21.9375 3.875L22.5625 3.875L22.5625 3.87319L21.9375 3.875ZM19.5 1.4375L19.5018 0.8125H19.5V1.4375ZM3.25 1.4375L3.25 0.812497L3.24819 0.812503L3.25 1.4375ZM0.8125 3.875L0.1875 3.87319V3.875H0.8125ZM0.8125 16.875L0.187497 16.875L0.187503 16.8768L0.8125 16.875ZM3.25 19.3125L3.24819 19.9375H3.25V19.3125ZM16.9348 18.3431C17.1799 18.5861 17.5757 18.5844 17.8187 18.3393C18.0617 18.0941 18.0599 17.6984 17.8148 17.4554L16.9348 18.3431ZM12.9492 13.5123L13.3892 13.0684L13.3885 13.0677L12.9492 13.5123ZM10.8073 13.4508L10.3942 12.9818L10.3938 12.9822L10.8073 13.4508ZM4.4615 18.2162C4.20267 18.4446 4.17797 18.8395 4.40634 19.0983C4.63471 19.3572 5.02966 19.3819 5.2885 19.1535L4.4615 18.2162ZM13.0284 22.119C12.7834 22.3621 12.782 22.7579 13.0252 23.0028C13.2684 23.2478 13.6641 23.2492 13.909 23.006L13.0284 22.119ZM19.4909 16.584L19.052 16.139L19.0505 16.1405L19.4909 16.584ZM21.5963 16.4891L21.9947 16.0075L21.9933 16.0064L21.5963 16.4891ZM24.7891 19.9418C25.055 20.1619 25.449 20.1246 25.6691 19.8587C25.8891 19.5927 25.8519 19.1988 25.5859 18.9787L24.7891 19.9418ZM22.5625 4.6875V3.875H21.3125V4.6875H22.5625ZM22.5625 3.87319C22.5601 3.06217 22.2369 2.28504 21.6634 1.71156L20.7796 2.59544C21.1195 2.93539 21.3111 3.39606 21.3125 3.87681L22.5625 3.87319ZM21.6634 1.71156C21.09 1.13808 20.3128 0.814858 19.5018 0.812503L19.4982 2.0625C19.9789 2.06389 20.4396 2.25549 20.7796 2.59544L21.6634 1.71156ZM19.5 0.8125H3.25V2.0625H19.5V0.8125ZM3.24819 0.812503C2.43717 0.814858 1.66004 1.13808 1.08656 1.71156L1.97044 2.59544C2.31039 2.25549 2.77106 2.06389 3.25181 2.0625L3.24819 0.812503ZM1.08656 1.71156C0.513078 2.28504 0.189858 3.06217 0.187503 3.87319L1.4375 3.87681C1.43889 3.39606 1.63049 2.93539 1.97044 2.59544L1.08656 1.71156ZM0.1875 3.875V16.875H1.4375V3.875H0.1875ZM0.187503 16.8768C0.189858 17.6878 0.513078 18.465 1.08656 19.0384L1.97044 18.1546C1.63049 17.8146 1.43889 17.3539 1.4375 16.8732L0.187503 16.8768ZM1.08656 19.0384C1.66004 19.6119 2.43717 19.9351 3.24819 19.9375L3.25181 18.6875C2.77106 18.6861 2.31039 18.4945 1.97044 18.1546L1.08656 19.0384ZM3.25 19.9375H4.0625V18.6875H3.25V19.9375ZM7.21043 6.125H22.8521V4.875H7.21043V6.125ZM22.8521 6.125C23.7967 6.125 24.5625 6.89079 24.5625 7.83543H25.8125C25.8125 6.20043 24.4871 4.875 22.8521 4.875V6.125ZM24.5625 7.83543V20.2271H25.8125V7.83543H24.5625ZM24.5625 20.2271C24.5625 21.1717 23.7967 21.9375 22.8521 21.9375V23.1875C24.4871 23.1875 25.8125 21.8621 25.8125 20.2271H24.5625ZM22.8521 21.9375H7.21043V23.1875H22.8521V21.9375ZM7.21043 21.9375C6.26579 21.9375 5.5 21.1717 5.5 20.2271H4.25C4.25 21.8621 5.57543 23.1875 7.21043 23.1875V21.9375ZM5.5 20.2271V7.83543H4.25V20.2271H5.5ZM5.5 7.83543C5.5 6.89079 6.26579 6.125 7.21043 6.125V4.875C5.57543 4.875 4.25 6.20043 4.25 7.83543H5.5ZM19.8749 10.1536C19.8749 10.661 19.4594 11.08 18.9373 11.08V12.33C20.1413 12.33 21.1249 11.3598 21.1249 10.1536H19.8749ZM18.9373 11.08C18.4153 11.08 17.9998 10.661 17.9998 10.1536H16.7498C16.7498 11.3598 17.7334 12.33 18.9373 12.33V11.08ZM17.9998 10.1536C17.9998 9.6462 18.4153 9.22723 18.9373 9.22723V7.97723C17.7334 7.97723 16.7498 8.9474 16.7498 10.1536H17.9998ZM18.9373 9.22723C19.4594 9.22723 19.8749 9.64619 19.8749 10.1536H21.1249C21.1249 8.9474 20.1413 7.97723 18.9373 7.97723V9.22723ZM17.8148 17.4554L13.3892 13.0684L12.5092 13.9561L16.9348 18.3431L17.8148 17.4554ZM13.3885 13.0677C12.993 12.6769 12.464 12.4508 11.9083 12.4348L11.8724 13.6843C12.1118 13.6912 12.3396 13.7886 12.51 13.9569L13.3885 13.0677ZM11.9083 12.4348C11.3525 12.4189 10.8114 12.6143 10.3942 12.9818L11.2203 13.9199C11.4 13.7616 11.6331 13.6774 11.8724 13.6843L11.9083 12.4348ZM10.3938 12.9822L4.4615 18.2162L5.2885 19.1535L11.2208 13.9195L10.3938 12.9822ZM13.909 23.006L19.9312 17.0276L19.0505 16.1405L13.0284 22.119L13.909 23.006ZM19.9297 17.029C20.0968 16.8642 20.319 16.7672 20.5535 16.7566L20.4972 15.5079C19.954 15.5324 19.4391 15.7572 19.052 16.139L19.9297 17.029ZM20.5535 16.7566C20.7879 16.746 21.018 16.8227 21.1992 16.9718L21.9933 16.0064C21.5733 15.661 21.0403 15.4834 20.4972 15.5079L20.5535 16.7566ZM21.1978 16.9706L24.7891 19.9418L25.5859 18.9787L21.9947 16.0075L21.1978 16.9706Z" fill="#85B6FF"/>
</svg>
