<svg width="20" height="20" viewBox="0 0 20 20" fill="none" xmlns="http://www.w3.org/2000/svg">
<path d="M2.08284 17.6666C1.59895 17.6666 1.1862 17.4962 0.844585 17.1553C0.503697 16.8144 0.333252 16.4017 0.333252 15.9171V2.0829C0.333252 1.59901 0.503697 1.18626 0.844585 0.844646C1.18547 0.503758 1.59822 0.333313 2.08284 0.333313H15.917C16.4009 0.333313 16.8136 0.503758 17.1553 0.844646C17.4961 1.18554 17.6666 1.59828 17.6666 2.0829V8.52873C17.4766 8.46373 17.2946 8.41065 17.1206 8.36948C16.9473 8.32904 16.7681 8.28859 16.5833 8.24815V2.08398C16.5833 1.91715 16.5139 1.76404 16.3753 1.62465C16.2359 1.48598 16.0831 1.41665 15.917 1.41665H2.08284C1.91672 1.41665 1.76397 1.48598 1.62459 1.62465C1.48592 1.76404 1.41659 1.91679 1.41659 2.0829V15.9171C1.41659 16.0832 1.48592 16.2359 1.62459 16.3753C1.76397 16.514 1.91672 16.5833 2.08284 16.5833H8.221C8.247 16.7855 8.28059 16.9737 8.32175 17.1477C8.36292 17.3211 8.416 17.494 8.481 17.6666H2.08284ZM1.41659 16.5833V1.41665V8.24815V8.1669V16.5833ZM4.12492 13.6258H8.41492C8.45464 13.4402 8.50881 13.2607 8.57742 13.0874L8.79409 12.5414H4.12492V13.6258ZM4.12492 9.54165H11.2533C11.6093 9.29176 11.9596 9.07979 12.3041 8.90573C12.65 8.7324 13.0209 8.59662 13.4167 8.4984V8.45831H4.12492V9.54165ZM4.12492 5.45748H13.8749V4.37415H4.12492V5.45748ZM15.4999 19.959C14.2931 19.959 13.269 19.5386 12.4276 18.698C11.5862 17.8573 11.1659 16.8328 11.1666 15.6246C11.1666 14.4185 11.5869 13.3947 12.4276 12.5533C13.2683 11.7119 14.2924 11.2912 15.4999 11.2912C16.7068 11.2912 17.7309 11.7119 18.5723 12.5533C19.4136 13.3947 19.834 14.4185 19.8333 15.6246C19.8333 16.8321 19.4129 17.8562 18.5723 18.6969C17.7301 19.5376 16.706 19.959 15.4999 19.959ZM15.0828 18.75H15.917V16.0416H18.6253V15.2075H15.917V12.4991H15.0828V15.2075H12.3745V16.0416H15.0828V18.75Z" fill="#85B6FF"/>
</svg>
