<svg width="21" height="21" viewBox="0 0 21 21" fill="none" xmlns="http://www.w3.org/2000/svg">
<path d="M7.14889 1.29889C5.65196 1.29628 4.21098 1.86761 3.12254 2.89529C2.0341 3.92297 1.38103 5.32879 1.29775 6.82341C1.21446 8.31803 1.7073 9.78771 2.67483 10.9299C3.64235 12.0722 5.01094 12.8001 6.49889 12.9638V14.2703C5.14589 14.1466 3.85614 13.6399 2.78068 12.8096C1.70523 11.9794 0.888595 10.8599 0.426414 9.58226C-0.0357667 8.30463 -0.124361 6.92177 0.171006 5.59561C0.466374 4.26945 1.13348 3.0549 2.09419 2.09419C3.0549 1.13348 4.26945 0.466374 5.59561 0.171006C6.92177 -0.124361 8.30463 -0.0357667 9.58226 0.426414C10.8599 0.888595 11.9794 1.70523 12.8096 2.78068C13.6399 3.85614 14.1466 5.14589 14.2703 6.49889H12.9638C12.8039 5.06864 12.1224 3.74752 11.0496 2.78819C9.97682 1.82885 8.58805 1.29862 7.14889 1.29889ZM11.0489 7.79889C10.1869 7.79889 9.36029 8.1413 8.7508 8.7508C8.1413 9.36029 7.79889 10.1869 7.79889 11.0489V17.5489C7.79889 18.4108 8.1413 19.2375 8.7508 19.847C9.36029 20.4565 10.1869 20.7989 11.0489 20.7989H17.5489C18.4108 20.7989 19.2375 20.4565 19.847 19.847C20.4565 19.2375 20.7989 18.4108 20.7989 17.5489V11.0489C20.7989 10.1869 20.4565 9.36029 19.847 8.7508C19.2375 8.1413 18.4108 7.79889 17.5489 7.79889H11.0489ZM9.09889 11.0489C9.09889 10.5317 9.30434 10.0357 9.67003 9.67003C10.0357 9.30434 10.5317 9.09889 11.0489 9.09889H17.5489C18.0661 9.09889 18.5621 9.30434 18.9277 9.67003C19.2934 10.0357 19.4989 10.5317 19.4989 11.0489V17.5489C19.4989 18.0661 19.2934 18.5621 18.9277 18.9277C18.5621 19.2934 18.0661 19.4989 17.5489 19.4989H11.0489C10.5317 19.4989 10.0357 19.2934 9.67003 18.9277C9.30434 18.5621 9.09889 18.0661 9.09889 17.5489V11.0489Z" fill="#85B6FF"/>
</svg>
