<svg width="30" height="30" viewBox="0 0 30 30" fill="none" xmlns="http://www.w3.org/2000/svg">
<path fill-rule="evenodd" clip-rule="evenodd" d="M15 3.75C15.3315 3.75 15.6495 3.8817 15.8839 4.11612C16.1183 4.35054 16.25 4.66848 16.25 5V6.25H26.25C26.5815 6.25 26.8995 6.3817 27.1339 6.61612C27.3683 6.85054 27.5 7.16848 27.5 7.5C27.5 7.83152 27.3683 8.14946 27.1339 8.38388C26.8995 8.61831 26.5815 8.75 26.25 8.75V20C26.5815 20 26.8995 20.1317 27.1339 20.3661C27.3683 20.6005 27.5 20.9185 27.5 21.25C27.5 21.5815 27.3683 21.8995 27.1339 22.1339C26.8995 22.3683 26.5815 22.5 26.25 22.5H20.5175L22.1338 24.1162C22.3614 24.352 22.4874 24.6678 22.4846 24.9955C22.4817 25.3232 22.3503 25.6368 22.1185 25.8685C21.8868 26.1003 21.5732 26.2317 21.2455 26.2346C20.9178 26.2374 20.602 26.1114 20.3662 25.8838L16.9825 22.5H13.0175L9.63375 25.8838C9.398 26.1114 9.08224 26.2374 8.7545 26.2346C8.42675 26.2317 8.11324 26.1003 7.88148 25.8685C7.64972 25.6368 7.51826 25.3232 7.51541 24.9955C7.51256 24.6678 7.63855 24.352 7.86625 24.1162L9.4825 22.5H3.75C3.41848 22.5 3.10054 22.3683 2.86612 22.1339C2.6317 21.8995 2.5 21.5815 2.5 21.25C2.5 20.9185 2.6317 20.6005 2.86612 20.3661C3.10054 20.1317 3.41848 20 3.75 20V8.75C3.41848 8.75 3.10054 8.61831 2.86612 8.38388C2.6317 8.14946 2.5 7.83152 2.5 7.5C2.5 7.16848 2.6317 6.85054 2.86612 6.61612C3.10054 6.3817 3.41848 6.25 3.75 6.25H13.75V5C13.75 4.66848 13.8817 4.35054 14.1161 4.11612C14.3505 3.8817 14.6685 3.75 15 3.75ZM23.75 20V8.75H6.25V20H23.75Z" fill="#85B6FF"/>
</svg>
