<svg width="29" height="87" viewBox="0 0 29 87" fill="none" xmlns="http://www.w3.org/2000/svg">
<path d="M13.5255 0.683775C13.832 -0.235571 15.136 -0.225223 15.4278 0.698869L23.0891 24.9595C23.2926 25.604 23.765 25.3813 23.0891 25.3813H14.5H5.43874C4.75618 25.3813 5.2229 25.5919 5.43874 24.9444L13.5255 0.683775Z" fill="#EE3F3F"/>
<path d="M0 25.3813H29V28.4503H0V25.3813Z" fill="#EE3F3F"/>
<path d="M0 28.4503H29V48.3985H0V28.4503Z" fill="url(#paint0_linear_84_21)"/>
<path d="M0 53.002H29V86.7606H0V53.002Z" fill="url(#paint1_linear_84_21)"/>
<path d="M0 48.3985H29V53.002H0V48.3985Z" fill="#EE3F3F"/>
<defs>
<linearGradient id="paint0_linear_84_21" x1="0" y1="43.3803" x2="29" y2="43.3803" gradientUnits="userSpaceOnUse">
<stop offset="0.0309998" stop-color="#2D2D2D"/>
<stop offset="0.271" stop-color="#5E5E5E"/>
<stop offset="0.676" stop-color="#4F4D4D"/>
<stop offset="0.826" stop-color="#242424"/>
<stop offset="1" stop-color="#222222"/>
</linearGradient>
<linearGradient id="paint1_linear_84_21" x1="0" y1="43.3803" x2="29" y2="43.3803" gradientUnits="userSpaceOnUse">
<stop stop-color="#1C1C1C"/>
<stop offset="0.271" stop-color="#5E5E5E"/>
<stop offset="0.681" stop-color="#3F3F3F"/>
<stop offset="0.921"/>
<stop offset="1" stop-color="#2D2D2D"/>
</linearGradient>
</defs>
</svg>
