<svg width="20" height="20" viewBox="0 0 20 20" fill="none" xmlns="http://www.w3.org/2000/svg">
<path d="M14.4386 7.38067L12.6838 5.60006L10.0129 8.2323L7.38061 5.56139L5.6 7.31622L8.23224 9.98713L5.56133 12.6194L7.31615 14.4L9.98707 11.7677L12.6193 14.4387L14.3999 12.6838L11.7677 10.0129L14.4386 7.38067Z" fill="#D9D9D9"/>
<path d="M4.06459 15.8495C7.29515 19.1275 12.5714 19.1659 15.8494 15.9354C19.1274 12.7048 19.1659 7.4286 15.9353 4.15059C12.7048 0.872576 7.42854 0.834102 4.15053 4.06465C0.872515 7.29521 0.834041 12.5714 4.06459 15.8495Z" stroke="black" stroke-width="1.66667" stroke-linecap="round" stroke-linejoin="round"/>
<path d="M14.4386 7.38067L12.6838 5.60006L10.0129 8.2323L7.38061 5.56139L5.6 7.31622L8.23224 9.98713L5.56133 12.6194L7.31615 14.4L9.98707 11.7677L12.6193 14.4387L14.3999 12.6838L11.7677 10.0129L14.4386 7.38067Z" stroke="black" stroke-width="1.66667" stroke-linecap="round" stroke-linejoin="round"/>
</svg>
