<svg width="48" height="7" viewBox="0 0 48 7" fill="none" xmlns="http://www.w3.org/2000/svg">
<path d="M3.17126 0C2.75481 0 2.34243 0.0794448 1.95767 0.233799C1.57292 0.388152 1.22332 0.614392 0.928842 0.899601C0.634363 1.18481 0.400769 1.5234 0.241398 1.89604C0.0820272 2.26869 0 2.66808 0 3.07143C0 3.47477 0.0820272 3.87417 0.241398 4.24681C0.400769 4.61946 0.634363 4.95805 0.928842 5.24326C1.22332 5.52847 1.57292 5.7547 1.95767 5.90906C2.34243 6.06341 2.75481 6.14286 3.17126 6.14286L3.17126 0Z" fill="#6B6B6B"/>
<path d="M3.18681 0H44.3822V6.14286H3.18681V0Z" fill="#6B6B6B"/>
<path d="M45.6113 5.90906C45.2265 6.06341 44.8142 6.14286 44.3977 6.14286V0C44.8142 0 45.2265 0.0794448 45.6113 0.233799C45.996 0.388152 46.3456 0.614392 46.6401 0.899601C46.9346 1.18481 47.1682 1.5234 47.3276 1.89604C47.4869 2.26869 47.569 2.66808 47.569 3.07143C47.569 3.47477 47.4869 3.87417 47.3276 4.24681C47.1682 4.61946 46.9346 4.95805 46.6401 5.24326C46.3456 5.52847 45.996 5.7547 45.6113 5.90906Z" fill="#6B6B6B"/>
</svg>
