<svg width="26" height="26" viewBox="0 0 26 26" fill="none" xmlns="http://www.w3.org/2000/svg">
<path fill-rule="evenodd" clip-rule="evenodd" d="M0 13C0 5.8201 5.8201 0 13 0C20.1799 0 26 5.8201 26 13C26 20.1799 20.1799 26 13 26C5.8201 26 0 20.1799 0 13ZM6.8211 21.3668L7.4191 17.7723C7.52034 17.1652 7.83367 16.6137 8.30333 16.216C8.77299 15.8182 9.36853 15.5999 9.984 15.6H16.016C16.6312 15.6002 17.2265 15.8186 17.6959 16.2164C18.1653 16.6141 18.4784 17.1654 18.5796 17.7723L19.1789 21.3668C17.3911 22.6907 15.2246 23.4036 13 23.4C10.7754 23.4037 8.60881 22.6908 6.8211 21.3668ZM9.1 13V10.023C9.1 9.90239 9.13357 9.78416 9.19693 9.68153C9.2603 9.57891 9.35097 9.49593 9.4588 9.4419L15.9588 6.1919C16.0579 6.14224 16.168 6.11875 16.2788 6.12366C16.3895 6.12857 16.4972 6.16171 16.5915 6.21994C16.6858 6.27817 16.7636 6.35956 16.8176 6.45636C16.8716 6.55316 16.9 6.66216 16.9 6.773V13H9.1Z" fill="#85B6FF"/>
</svg>
