<svg width="15" height="14" viewBox="0 0 15 14" fill="none" xmlns="http://www.w3.org/2000/svg">
<path d="M3.03489 6.06171L7.24037 10.0526L11.4458 6.06171L10.8389 5.48571L7.24037 8.90057L3.64186 5.48571L3.03489 6.06171Z" fill="#85B6FF"/>
<path fill-rule="evenodd" clip-rule="evenodd" d="M0 6.99429C0 10.8617 3.29502 13.9886 7.37043 13.9886C11.4458 13.9886 14.7409 10.8617 14.7409 6.99429C14.7409 3.12686 11.4458 0 7.37043 0C3.29502 0 0 3.12686 0 6.99429ZM0.86711 6.99429C0.86711 3.57943 3.77193 0.822857 7.37043 0.822857C10.9689 0.822857 13.8738 3.57943 13.8738 6.99429C13.8738 10.4091 10.9689 13.1657 7.37043 13.1657C3.77193 13.1657 0.86711 10.4091 0.86711 6.99429Z" fill="#85B6FF"/>
</svg>
