<svg width="26" height="26" viewBox="0 0 26 26" fill="none" xmlns="http://www.w3.org/2000/svg">
<path fill-rule="evenodd" clip-rule="evenodd" d="M18.0271 10.232C18.2308 10.0624 18.4936 9.98053 18.7576 10.0045C19.0216 10.0285 19.2653 10.1564 19.4351 10.36L21.5181 12.86C21.6804 13.0645 21.7562 13.3244 21.7295 13.5841C21.7027 13.8438 21.5755 14.0827 21.3749 14.2498C21.1744 14.4169 20.9164 14.499 20.6562 14.4785C20.3959 14.458 20.154 14.3365 19.9821 14.14L17.8981 11.64C17.7284 11.4363 17.6466 11.1736 17.6706 10.9095C17.6946 10.6455 17.8225 10.4018 18.0261 10.232" fill="#85B6FF"/>
<path fill-rule="evenodd" clip-rule="evenodd" d="M18.0269 16.768C17.8232 16.5984 17.6951 16.3547 17.6709 16.0907C17.6467 15.8267 17.7284 15.5638 17.8979 15.36L19.9819 12.86C20.0648 12.7555 20.1677 12.6687 20.2847 12.6046C20.4016 12.5406 20.5302 12.5005 20.6628 12.4868C20.7955 12.4732 20.9295 12.4862 21.057 12.5251C21.1846 12.564 21.303 12.628 21.4055 12.7133C21.5079 12.7987 21.5922 12.9037 21.6535 13.0221C21.7148 13.1406 21.7517 13.2701 21.7622 13.403C21.7727 13.5359 21.7565 13.6696 21.7145 13.7962C21.6726 13.9227 21.6057 14.0396 21.5179 14.14L19.4349 16.64C19.2652 16.8436 19.0215 16.9715 18.7574 16.9955C18.4934 17.0195 18.2307 16.9377 18.0269 16.768Z" fill="#85B6FF"/>
<path fill-rule="evenodd" clip-rule="evenodd" d="M20.5 13.4999C20.5 13.7652 20.3946 14.0195 20.2071 14.207C20.0196 14.3946 19.7652 14.4999 19.5 14.4999H13C12.7348 14.4999 12.4804 14.3946 12.2929 14.207C12.1054 14.0195 12 13.7652 12 13.4999C12 13.2347 12.1054 12.9804 12.2929 12.7928C12.4804 12.6053 12.7348 12.4999 13 12.4999H19.5C19.7652 12.4999 20.0196 12.6053 20.2071 12.7928C20.3946 12.9804 20.5 13.2347 20.5 13.4999ZM6 6.49994C6 6.23472 6.10536 5.98037 6.29289 5.79283C6.48043 5.6053 6.73478 5.49994 7 5.49994H16C16.2652 5.49994 16.5196 5.6053 16.7071 5.79283C16.8946 5.98037 17 6.23472 17 6.49994C17 6.76516 16.8946 7.01951 16.7071 7.20705C16.5196 7.39458 16.2652 7.49994 16 7.49994H7C6.73478 7.49994 6.48043 7.39458 6.29289 7.20705C6.10536 7.01951 6 6.76516 6 6.49994ZM6 20.4999C6 20.2347 6.10536 19.9804 6.29289 19.7928C6.48043 19.6053 6.73478 19.4999 7 19.4999H16C16.2652 19.4999 16.5196 19.6053 16.7071 19.7928C16.8946 19.9804 17 20.2347 17 20.4999C17 20.7652 16.8946 21.0195 16.7071 21.207C16.5196 21.3946 16.2652 21.4999 16 21.4999H7C6.73478 21.4999 6.48043 21.3946 6.29289 21.207C6.10536 21.0195 6 20.7652 6 20.4999Z" fill="#85B6FF"/>
<path fill-rule="evenodd" clip-rule="evenodd" d="M16 5.49994C16.2652 5.49994 16.5196 5.6053 16.7071 5.79283C16.8946 5.98037 17 6.23472 17 6.49994V10.4999C17 10.7652 16.8946 11.0195 16.7071 11.207C16.5196 11.3946 16.2652 11.4999 16 11.4999C15.7348 11.4999 15.4804 11.3946 15.2929 11.207C15.1054 11.0195 15 10.7652 15 10.4999V6.49994C15 6.23472 15.1054 5.98037 15.2929 5.79283C15.4804 5.6053 15.7348 5.49994 16 5.49994ZM16 15.4999C16.2652 15.4999 16.5196 15.6053 16.7071 15.7928C16.8946 15.9804 17 16.2347 17 16.4999V20.4999C17 20.7652 16.8946 21.0195 16.7071 21.207C16.5196 21.3946 16.2652 21.4999 16 21.4999C15.7348 21.4999 15.4804 21.3946 15.2929 21.207C15.1054 21.0195 15 20.7652 15 20.4999V16.4999C15 16.2347 15.1054 15.9804 15.2929 15.7928C15.4804 15.6053 15.7348 15.4999 16 15.4999ZM7 5.49994C7.26522 5.49994 7.51957 5.6053 7.70711 5.79283C7.89464 5.98037 8 6.23472 8 6.49994V20.4999C8 20.7652 7.89464 21.0195 7.70711 21.207C7.51957 21.3946 7.26522 21.4999 7 21.4999C6.73478 21.4999 6.48043 21.3946 6.29289 21.207C6.10536 21.0195 6 20.7652 6 20.4999V6.49994C6 6.23472 6.10536 5.98037 6.29289 5.79283C6.48043 5.6053 6.73478 5.49994 7 5.49994Z" fill="#85B6FF"/>
<path fill-rule="evenodd" clip-rule="evenodd" d="M13 24C19.075 24 24 19.075 24 13C24 6.925 19.075 2 13 2C6.925 2 2 6.925 2 13C2 19.075 6.925 24 13 24ZM13 26C20.18 26 26 20.18 26 13C26 5.82 20.18 0 13 0C5.82 0 0 5.82 0 13C0 20.18 5.82 26 13 26Z" fill="#85B6FF"/>
</svg>
