<svg width="26" height="26" viewBox="0 0 26 26" fill="none" xmlns="http://www.w3.org/2000/svg">
<path fill-rule="evenodd" clip-rule="evenodd" d="M18.0271 10.232C18.2308 10.0623 18.4935 9.98052 18.7576 10.0045C19.0216 10.0285 19.2653 10.1564 19.4351 10.36L21.5181 12.86C21.6803 13.0645 21.7562 13.3244 21.7294 13.5841C21.7027 13.8437 21.5754 14.0827 21.3749 14.2498C21.1743 14.4169 20.9164 14.499 20.6561 14.4785C20.3959 14.458 20.154 14.3365 19.9821 14.14L17.8981 11.64C17.7284 11.4363 17.6466 11.1735 17.6706 10.9095C17.6946 10.6455 17.8225 10.4018 18.0261 10.232" fill="#85B6FF"/>
<path fill-rule="evenodd" clip-rule="evenodd" d="M18.027 16.768C17.8232 16.5984 17.6952 16.3548 17.671 16.0907C17.6468 15.8267 17.7284 15.5639 17.898 15.36L19.982 12.86C20.0649 12.7556 20.1678 12.6687 20.2847 12.6047C20.4017 12.5406 20.5302 12.5005 20.6629 12.4869C20.7955 12.4732 20.9295 12.4862 21.0571 12.5251C21.1846 12.564 21.3031 12.628 21.4055 12.7134C21.508 12.7987 21.5923 12.9037 21.6536 13.0222C21.7148 13.1406 21.7518 13.2701 21.7623 13.403C21.7727 13.5359 21.7565 13.6696 21.7146 13.7962C21.6726 13.9228 21.6058 14.0397 21.518 14.14L19.435 16.64C19.2652 16.8436 19.0215 16.9715 18.7575 16.9955C18.4935 17.0195 18.2307 16.9377 18.027 16.768Z" fill="#85B6FF"/>
<path fill-rule="evenodd" clip-rule="evenodd" d="M20.5 13.5C20.5 13.7652 20.3946 14.0195 20.2071 14.2071C20.0195 14.3946 19.7652 14.5 19.5 14.5H13C12.7347 14.5 12.4804 14.3946 12.2929 14.2071C12.1053 14.0195 12 13.7652 12 13.5C12 13.2347 12.1053 12.9804 12.2929 12.7929C12.4804 12.6053 12.7347 12.5 13 12.5H19.5C19.7652 12.5 20.0195 12.6053 20.2071 12.7929C20.3946 12.9804 20.5 13.2347 20.5 13.5ZM5.99996 6.49996C5.99996 6.23475 6.10532 5.98039 6.29286 5.79286C6.48039 5.60532 6.73475 5.49996 6.99996 5.49996H16C16.2652 5.49996 16.5195 5.60532 16.7071 5.79286C16.8946 5.98039 17 6.23475 17 6.49996C17 6.76518 16.8946 7.01953 16.7071 7.20707C16.5195 7.39461 16.2652 7.49996 16 7.49996H6.99996C6.73475 7.49996 6.48039 7.39461 6.29286 7.20707C6.10532 7.01953 5.99996 6.76518 5.99996 6.49996ZM5.99996 20.5C5.99996 20.2347 6.10532 19.9804 6.29286 19.7929C6.48039 19.6053 6.73475 19.5 6.99996 19.5H16C16.2652 19.5 16.5195 19.6053 16.7071 19.7929C16.8946 19.9804 17 20.2347 17 20.5C17 20.7652 16.8946 21.0195 16.7071 21.2071C16.5195 21.3946 16.2652 21.5 16 21.5H6.99996C6.73475 21.5 6.48039 21.3946 6.29286 21.2071C6.10532 21.0195 5.99996 20.7652 5.99996 20.5Z" fill="#85B6FF"/>
<path fill-rule="evenodd" clip-rule="evenodd" d="M16 5.49996C16.2652 5.49996 16.5195 5.60532 16.7071 5.79286C16.8946 5.98039 17 6.23475 17 6.49996V10.5C17 10.7652 16.8946 11.0195 16.7071 11.2071C16.5195 11.3946 16.2652 11.5 16 11.5C15.7347 11.5 15.4804 11.3946 15.2929 11.2071C15.1053 11.0195 15 10.7652 15 10.5V6.49996C15 6.23475 15.1053 5.98039 15.2929 5.79286C15.4804 5.60532 15.7347 5.49996 16 5.49996ZM16 15.5C16.2652 15.5 16.5195 15.6053 16.7071 15.7929C16.8946 15.9804 17 16.2347 17 16.5V20.5C17 20.7652 16.8946 21.0195 16.7071 21.2071C16.5195 21.3946 16.2652 21.5 16 21.5C15.7347 21.5 15.4804 21.3946 15.2929 21.2071C15.1053 21.0195 15 20.7652 15 20.5V16.5C15 16.2347 15.1053 15.9804 15.2929 15.7929C15.4804 15.6053 15.7347 15.5 16 15.5ZM6.99996 5.49996C7.26518 5.49996 7.51953 5.60532 7.70707 5.79286C7.89461 5.98039 7.99996 6.23475 7.99996 6.49996V20.5C7.99996 20.7652 7.89461 21.0195 7.70707 21.2071C7.51953 21.3946 7.26518 21.5 6.99996 21.5C6.73475 21.5 6.48039 21.3946 6.29286 21.2071C6.10532 21.0195 5.99996 20.7652 5.99996 20.5V6.49996C5.99996 6.23475 6.10532 5.98039 6.29286 5.79286C6.48039 5.60532 6.73475 5.49996 6.99996 5.49996Z" fill="#85B6FF"/>
<path fill-rule="evenodd" clip-rule="evenodd" d="M13 24C19.075 24 24 19.075 24 13C24 6.925 19.075 2 13 2C6.925 2 2 6.925 2 13C2 19.075 6.925 24 13 24ZM13 26C20.18 26 26 20.18 26 13C26 5.82 20.18 0 13 0C5.82 0 0 5.82 0 13C0 20.18 5.82 26 13 26Z" fill="#85B6FF"/>
</svg>
