<svg width="20" height="20" viewBox="0 0 20 20" fill="none" xmlns="http://www.w3.org/2000/svg">
<path d="M7.5 2.9143C6.34852 2.91234 5.24007 3.33927 4.40281 4.10721C3.56555 4.87514 3.06319 5.92565 2.99912 7.04251C2.93506 8.15937 3.31416 9.25759 4.05841 10.1111C4.80266 10.9647 5.85542 11.5086 7 11.6309V12.6072C5.95923 12.5148 4.96711 12.1362 4.13984 11.5157C3.31257 10.8953 2.68439 10.0588 2.32887 9.10406C1.97334 8.14936 1.90519 7.11601 2.1324 6.12503C2.3596 5.13406 2.87276 4.22648 3.61177 3.50858C4.35078 2.79069 5.28505 2.29219 6.30517 2.07148C7.32529 1.85077 8.38903 1.91697 9.37182 2.26233C10.3546 2.6077 11.2158 3.21793 11.8544 4.02157C12.4931 4.8252 12.8828 5.78897 12.978 6.80001H11.973C11.85 5.73125 11.3258 4.74404 10.5005 4.02717C9.67533 3.31031 8.60705 2.91409 7.5 2.9143ZM10.5 7.77144C9.83696 7.77144 9.20108 8.02731 8.73224 8.48275C8.2634 8.9382 8 9.55591 8 10.2V15.0572C8 15.7013 8.2634 16.319 8.73224 16.7744C9.20108 17.2299 9.83696 17.4857 10.5 17.4857H15.5C16.163 17.4857 16.7989 17.2299 17.2678 16.7744C17.7366 16.319 18 15.7013 18 15.0572V10.2C18 9.55591 17.7366 8.9382 17.2678 8.48275C16.7989 8.02731 16.163 7.77144 15.5 7.77144H10.5ZM9 10.2C9 9.81355 9.15804 9.44292 9.43934 9.16966C9.72065 8.89639 10.1022 8.74287 10.5 8.74287H15.5C15.8978 8.74287 16.2794 8.89639 16.5607 9.16966C16.842 9.44292 17 9.81355 17 10.2V15.0572C17 15.4436 16.842 15.8142 16.5607 16.0875C16.2794 16.3608 15.8978 16.5143 15.5 16.5143H10.5C10.1022 16.5143 9.72065 16.3608 9.43934 16.0875C9.15804 15.8142 9 15.4436 9 15.0572V10.2Z" fill="#85B6FF"/>
</svg>
