<svg width="37" height="35" viewBox="0 0 37 35" fill="none" xmlns="http://www.w3.org/2000/svg">
<path d="M0 12C0 5.37258 5.37258 0 12 0H25C31.6274 0 37 5.37258 37 12V23C37 29.6274 31.6274 35 25 35H12C5.37258 35 0 29.6274 0 23V12Z" fill="#2A2A2A"/>
<path d="M10.4268 9.08974C10.4268 9.30527 10.3424 9.51597 10.1842 9.69517C10.0261 9.87438 9.80133 10.0141 9.53835 10.0965C9.27537 10.179 8.986 10.2006 8.70682 10.1585C8.42764 10.1165 8.1712 10.0127 7.96992 9.86031C7.76865 9.70791 7.63157 9.51373 7.57604 9.30234C7.52051 9.09095 7.54901 8.87184 7.65794 8.67272C7.76687 8.47359 7.95134 8.3034 8.18801 8.18366C8.42469 8.06391 8.70295 8 8.98759 8C9.3693 8 9.73536 8.11481 10.0053 8.31918C10.2752 8.52355 10.4268 8.80073 10.4268 9.08974ZM18.7742 8C18.4895 8 18.2113 8.06391 17.9746 8.18366C17.7379 8.3034 17.5535 8.47359 17.4445 8.67272C17.3356 8.87184 17.3071 9.09095 17.3626 9.30234C17.4182 9.51373 17.5552 9.70791 17.7565 9.86031C17.9578 10.0127 18.2142 10.1165 18.4934 10.1585C18.7726 10.2006 19.062 10.179 19.325 10.0965C19.5879 10.0141 19.8127 9.87438 19.9708 9.69517C20.129 9.51597 20.2134 9.30527 20.2134 9.08974C20.2134 8.80073 20.0618 8.52355 19.7919 8.31918C19.522 8.11481 19.1559 8 18.7742 8ZM28.5608 10.1795C28.8454 10.1795 29.1237 10.1156 29.3604 9.99583C29.597 9.87609 29.7815 9.7059 29.8904 9.50677C29.9994 9.30765 30.0279 9.08854 29.9723 8.87715C29.9168 8.66576 29.7797 8.47158 29.5785 8.31918C29.3772 8.16678 29.1207 8.06299 28.8416 8.02094C28.5624 7.97889 28.273 8.00047 28.01 8.08295C27.7471 8.16543 27.5223 8.30511 27.3641 8.48431C27.206 8.66352 27.1216 8.87421 27.1216 9.08974C27.1216 9.37876 27.2732 9.65594 27.5431 9.86031C27.813 10.0647 28.1791 10.1795 28.5608 10.1795ZM8.98759 15.4103C8.70295 15.4103 8.42469 15.4742 8.18801 15.5939C7.95134 15.7137 7.76687 15.8838 7.65794 16.083C7.54901 16.2821 7.52051 16.5012 7.57604 16.7126C7.63157 16.924 7.76865 17.1182 7.96992 17.2706C8.1712 17.423 8.42764 17.5268 8.70682 17.5688C8.986 17.6109 9.27537 17.5893 9.53835 17.5068C9.80133 17.4243 10.0261 17.2846 10.1842 17.1054C10.3424 16.9262 10.4268 16.7155 10.4268 16.5C10.4268 16.211 10.2752 15.9338 10.0053 15.7294C9.73536 15.5251 9.3693 15.4103 8.98759 15.4103ZM18.7742 15.4103C18.4895 15.4103 18.2113 15.4742 17.9746 15.5939C17.7379 15.7137 17.5535 15.8838 17.4445 16.083C17.3356 16.2821 17.3071 16.5012 17.3626 16.7126C17.4182 16.924 17.5552 17.1182 17.7565 17.2706C17.9578 17.423 18.2142 17.5268 18.4934 17.5688C18.7726 17.6109 19.062 17.5893 19.325 17.5068C19.5879 17.4243 19.8127 17.2846 19.9708 17.1054C20.129 16.9262 20.2134 16.7155 20.2134 16.5C20.2134 16.211 20.0618 15.9338 19.7919 15.7294C19.522 15.5251 19.1559 15.4103 18.7742 15.4103ZM28.5608 15.4103C28.2761 15.4103 27.9979 15.4742 27.7612 15.5939C27.5245 15.7137 27.3401 15.8838 27.2311 16.083C27.1222 16.2821 27.0937 16.5012 27.1492 16.7126C27.2048 16.924 27.3418 17.1182 27.5431 17.2706C27.7444 17.423 28.0008 17.5268 28.28 17.5688C28.5592 17.6109 28.8486 17.5893 29.1116 17.5068C29.3745 17.4243 29.5993 17.2846 29.7574 17.1054C29.9156 16.9262 30 16.7155 30 16.5C30 16.211 29.8484 15.9338 29.5785 15.7294C29.3086 15.5251 28.9425 15.4103 28.5608 15.4103ZM8.98759 22.8205C8.70295 22.8205 8.42469 22.8844 8.18801 23.0042C7.95134 23.1239 7.76687 23.2941 7.65794 23.4932C7.54901 23.6924 7.52051 23.9115 7.57604 24.1229C7.63157 24.3342 7.76865 24.5284 7.96992 24.6808C8.1712 24.8332 8.42764 24.937 8.70682 24.9791C8.986 25.0211 9.27537 24.9995 9.53835 24.917C9.80133 24.8346 10.0261 24.6949 10.1842 24.5157C10.3424 24.3365 10.4268 24.1258 10.4268 23.9103C10.4268 23.6212 10.2752 23.3441 10.0053 23.1397C9.73536 22.9353 9.3693 22.8205 8.98759 22.8205ZM18.7742 22.8205C18.4895 22.8205 18.2113 22.8844 17.9746 23.0042C17.7379 23.1239 17.5535 23.2941 17.4445 23.4932C17.3356 23.6924 17.3071 23.9115 17.3626 24.1229C17.4182 24.3342 17.5552 24.5284 17.7565 24.6808C17.9578 24.8332 18.2142 24.937 18.4934 24.9791C18.7726 25.0211 19.062 24.9995 19.325 24.917C19.5879 24.8346 19.8127 24.6949 19.9708 24.5157C20.129 24.3365 20.2134 24.1258 20.2134 23.9103C20.2134 23.6212 20.0618 23.3441 19.7919 23.1397C19.522 22.9353 19.1559 22.8205 18.7742 22.8205ZM28.5608 22.8205C28.2761 22.8205 27.9979 22.8844 27.7612 23.0042C27.5245 23.1239 27.3401 23.2941 27.2311 23.4932C27.1222 23.6924 27.0937 23.9115 27.1492 24.1229C27.2048 24.3342 27.3418 24.5284 27.5431 24.6808C27.7444 24.8332 28.0008 24.937 28.28 24.9791C28.5592 25.0211 28.8486 24.9995 29.1116 24.917C29.3745 24.8346 29.5993 24.6949 29.7574 24.5157C29.9156 24.3365 30 24.1258 30 23.9103C30 23.6212 29.8484 23.3441 29.5785 23.1397C29.3086 22.9353 28.9425 22.8205 28.5608 22.8205Z" fill="#85B6FF"/>
</svg>
