<svg width="20" height="21" viewBox="0 0 20 21" fill="none" xmlns="http://www.w3.org/2000/svg">
<path fill-rule="evenodd" clip-rule="evenodd" d="M13.8669 8.44589C14.0236 8.31911 14.2257 8.25796 14.4288 8.2759C14.6319 8.29383 14.8194 8.38938 14.95 8.54154L16.5523 10.4097C16.6771 10.5625 16.7355 10.7567 16.7149 10.9507C16.6943 11.1448 16.5964 11.3233 16.4422 11.4482C16.2879 11.5731 16.0895 11.6344 15.8893 11.6191C15.6891 11.6037 15.503 11.513 15.3708 11.3662L13.7677 9.49802C13.6372 9.34579 13.5742 9.14945 13.5927 8.95215C13.6112 8.75486 13.7095 8.57276 13.8662 8.44589" fill="#85B6FF"/>
<path fill-rule="evenodd" clip-rule="evenodd" d="M13.8669 13.3299C13.7102 13.2031 13.6117 13.0211 13.5931 12.8238C13.5744 12.6265 13.6373 12.4301 13.7677 12.2778L15.3708 10.4096C15.4345 10.3316 15.5137 10.2667 15.6036 10.2188C15.6936 10.1709 15.7925 10.141 15.8945 10.1308C15.9965 10.1206 16.0996 10.1303 16.1978 10.1594C16.2959 10.1884 16.387 10.2363 16.4658 10.3001C16.5446 10.3638 16.6095 10.4423 16.6566 10.5308C16.7037 10.6193 16.7321 10.7161 16.7402 10.8154C16.7483 10.9147 16.7358 11.0146 16.7035 11.1092C16.6712 11.2038 16.6198 11.2911 16.5523 11.3661L14.95 13.2343C14.8194 13.3864 14.6319 13.482 14.4288 13.4999C14.2257 13.5178 14.0236 13.4567 13.8669 13.3299Z" fill="#85B6FF"/>
<path fill-rule="evenodd" clip-rule="evenodd" d="M15.7692 10.8879C15.7692 11.0861 15.6882 11.2762 15.5439 11.4163C15.3997 11.5564 15.204 11.6352 15 11.6352H10C9.79599 11.6352 9.60033 11.5564 9.45607 11.4163C9.31182 11.2762 9.23077 11.0861 9.23077 10.8879C9.23077 10.6897 9.31182 10.4997 9.45607 10.3595C9.60033 10.2194 9.79599 10.1407 10 10.1407H15C15.204 10.1407 15.3997 10.2194 15.5439 10.3595C15.6882 10.4997 15.7692 10.6897 15.7692 10.8879ZM4.61539 5.65713C4.61539 5.45895 4.69643 5.26888 4.84069 5.12875C4.98495 4.98861 5.18061 4.90988 5.38462 4.90988H12.3077C12.5117 4.90988 12.7074 4.98861 12.8516 5.12875C12.9959 5.26888 13.0769 5.45895 13.0769 5.65713C13.0769 5.85532 12.9959 6.04538 12.8516 6.18552C12.7074 6.32566 12.5117 6.40439 12.3077 6.40439H5.38462C5.18061 6.40439 4.98495 6.32566 4.84069 6.18552C4.69643 6.04538 4.61539 5.85532 4.61539 5.65713ZM4.61539 16.1187C4.61539 15.9205 4.69643 15.7304 4.84069 15.5903C4.98495 15.4501 5.18061 15.3714 5.38462 15.3714H12.3077C12.5117 15.3714 12.7074 15.4501 12.8516 15.5903C12.9959 15.7304 13.0769 15.9205 13.0769 16.1187C13.0769 16.3169 12.9959 16.5069 12.8516 16.6471C12.7074 16.7872 12.5117 16.8659 12.3077 16.8659H5.38462C5.18061 16.8659 4.98495 16.7872 4.84069 16.6471C4.69643 16.5069 4.61539 16.3169 4.61539 16.1187Z" fill="#85B6FF"/>
<path fill-rule="evenodd" clip-rule="evenodd" d="M12.3077 4.90988C12.5117 4.90988 12.7074 4.98861 12.8516 5.12875C12.9959 5.26888 13.0769 5.45895 13.0769 5.65713V8.64615C13.0769 8.84433 12.9959 9.0344 12.8516 9.17453C12.7074 9.31467 12.5117 9.3934 12.3077 9.3934C12.1037 9.3934 11.908 9.31467 11.7638 9.17453C11.6195 9.0344 11.5385 8.84433 11.5385 8.64615V5.65713C11.5385 5.45895 11.6195 5.26888 11.7638 5.12875C11.908 4.98861 12.1037 4.90988 12.3077 4.90988ZM12.3077 12.3824C12.5117 12.3824 12.7074 12.4611 12.8516 12.6013C12.9959 12.7414 13.0769 12.9315 13.0769 13.1297V16.1187C13.0769 16.3169 12.9959 16.5069 12.8516 16.6471C12.7074 16.7872 12.5117 16.8659 12.3077 16.8659C12.1037 16.8659 11.908 16.7872 11.7638 16.6471C11.6195 16.5069 11.5385 16.3169 11.5385 16.1187V13.1297C11.5385 12.9315 11.6195 12.7414 11.7638 12.6013C11.908 12.4611 12.1037 12.3824 12.3077 12.3824ZM5.38462 4.90988C5.58863 4.90988 5.78429 4.98861 5.92855 5.12875C6.0728 5.26888 6.15385 5.45895 6.15385 5.65713V16.1187C6.15385 16.3169 6.0728 16.5069 5.92855 16.6471C5.78429 16.7872 5.58863 16.8659 5.38462 16.8659C5.18061 16.8659 4.98495 16.7872 4.84069 16.6471C4.69643 16.5069 4.61539 16.3169 4.61539 16.1187V5.65713C4.61539 5.45895 4.69643 5.26888 4.84069 5.12875C4.98495 4.98861 5.18061 4.90988 5.38462 4.90988Z" fill="#85B6FF"/>
<path fill-rule="evenodd" clip-rule="evenodd" d="M10 18.7341C14.6731 18.7341 18.4615 15.0538 18.4615 10.5143C18.4615 5.97471 14.6731 2.29449 10 2.29449C5.32692 2.29449 1.53846 5.97471 1.53846 10.5143C1.53846 15.0538 5.32692 18.7341 10 18.7341ZM10 20.2286C15.5231 20.2286 20 15.8795 20 10.5143C20 5.149 15.5231 0.799988 10 0.799988C4.47692 0.799988 0 5.149 0 10.5143C0 15.8795 4.47692 20.2286 10 20.2286Z" fill="#85B6FF"/>
</svg>
