<svg width="54" height="97" viewBox="0 0 54 97" fill="none" xmlns="http://www.w3.org/2000/svg">
<path d="M0 49.3077H53V92.3846H0V49.3077Z" fill="url(#paint0_linear_84_25)"/>
<path d="M0 29.3077H53V49.3077H0V29.3077Z" fill="#FFF503"/>
<path d="M0 89.3077H53V97H0V89.3077Z" fill="url(#paint1_linear_84_25)"/>
<path d="M0 26.2308H53V29.3077H0V26.2308Z" fill="url(#paint2_linear_84_25)"/>
<path d="M17.0968 15.4615H37.6129L53 26.2308H0L17.0968 15.4615Z" fill="url(#paint3_linear_84_25)"/>
<path d="M17.0968 6.23077H37.6129V15.4615H17.0968V6.23077Z" fill="url(#paint4_linear_84_25)"/>
<path d="M1 0H54V7.69231H1V0Z" fill="url(#paint5_linear_84_25)"/>
<defs>
<linearGradient id="paint0_linear_84_25" x1="-8.70968" y1="48.5" x2="64.4516" y2="48.5" gradientUnits="userSpaceOnUse">
<stop/>
<stop offset="0.25" stop-color="#3E3E3E"/>
<stop offset="0.761" stop-color="#3A3A3A"/>
<stop offset="0.906"/>
</linearGradient>
<linearGradient id="paint1_linear_84_25" x1="1" y1="3.84615" x2="54" y2="3.84615" gradientUnits="userSpaceOnUse">
<stop/>
<stop offset="0.05" stop-color="#A2A2A2"/>
<stop offset="0.105"/>
<stop offset="0.51" stop-color="#7C7C7C"/>
<stop offset="1" stop-color="#242424"/>
</linearGradient>
<linearGradient id="paint2_linear_84_25" x1="0" y1="48.5" x2="54" y2="48.5" gradientUnits="userSpaceOnUse">
<stop/>
<stop offset="0.195" stop-color="#515151"/>
<stop offset="0.86" stop-color="#5B5656"/>
<stop offset="1"/>
</linearGradient>
<linearGradient id="paint3_linear_84_25" x1="0" y1="48.5" x2="54" y2="48.5" gradientUnits="userSpaceOnUse">
<stop offset="0.035"/>
<stop offset="0.095" stop-color="#222222"/>
<stop offset="0.135"/>
<stop offset="0.25" stop-color="#2B2B2B"/>
<stop offset="0.605" stop-color="#5B5B5B"/>
<stop offset="1"/>
</linearGradient>
<linearGradient id="paint4_linear_84_25" x1="17.4194" y1="4.9322" x2="40.9355" y2="4.9322" gradientUnits="userSpaceOnUse">
<stop stop-color="#909090"/>
<stop offset="0.055" stop-color="#3F3F3F"/>
<stop offset="0.21" stop-color="#242323"/>
<stop offset="0.55" stop-color="#6B6B6B"/>
<stop offset="0.88" stop-color="#222222"/>
<stop offset="1" stop-color="#030303"/>
</linearGradient>
<linearGradient id="paint5_linear_84_25" x1="1" y1="3.84615" x2="54" y2="3.84615" gradientUnits="userSpaceOnUse">
<stop/>
<stop offset="0.05" stop-color="#A2A2A2"/>
<stop offset="0.105"/>
<stop offset="0.51" stop-color="#7C7C7C"/>
<stop offset="1" stop-color="#242424"/>
</linearGradient>
</defs>
</svg>
