<svg width="14" height="33" viewBox="0 0 14 33" fill="none" xmlns="http://www.w3.org/2000/svg">
<path d="M3.80304 13.2031V29.9609C3.80081 30.1616 3.8375 30.3608 3.91095 30.5466C3.9844 30.7325 4.09313 30.9014 4.23076 31.0433C4.36838 31.1852 4.53212 31.2973 4.71236 31.3731C4.8926 31.4488 5.08569 31.4867 5.28031 31.4844C5.47493 31.4867 5.66803 31.4488 5.84826 31.3731C6.0285 31.2973 6.19224 31.1852 6.32986 31.0433C6.46749 30.9014 6.57622 30.7325 6.64967 30.5466C6.72312 30.3608 6.75981 30.1616 6.75758 29.9609M6.75758 29.9609V21.3281M6.75758 29.9609C6.75536 30.1616 6.79204 30.3608 6.8655 30.5466C6.93895 30.7325 7.04768 30.9014 7.1853 31.0433C7.32293 31.1852 7.48667 31.2973 7.6669 31.3731C7.84714 31.4488 8.04024 31.4867 8.23486 31.4844C8.42947 31.4867 8.62257 31.4488 8.80281 31.3731C8.98305 31.2973 9.14679 31.1852 9.28441 31.0433C9.42203 30.9014 9.53076 30.7325 9.60422 30.5466C9.67767 30.3608 9.71436 30.1616 9.71213 29.9609V13.2031M3.80304 12.1875V17.7734C3.80535 17.9742 3.76872 18.1733 3.69529 18.3592C3.62187 18.5452 3.51315 18.714 3.3755 18.856C3.23786 18.9979 3.07409 19.1101 2.89382 19.1858C2.71354 19.2615 2.5204 19.2993 2.32576 19.2969C2.13113 19.2993 1.93799 19.2615 1.75771 19.1858C1.57744 19.1101 1.41366 18.9979 1.27602 18.856C1.13838 18.714 1.02966 18.5452 0.956234 18.3592C0.882812 18.1733 0.84618 17.9742 0.848492 17.7734V12.1875C0.848492 11.3794 1.15977 10.6044 1.71386 10.033C2.26794 9.46163 3.01944 9.14063 3.80304 9.14062H9.71213C10.4957 9.14062 11.2472 9.46163 11.8013 10.033C12.3554 10.6044 12.6667 11.3794 12.6667 12.1875V17.7734C12.669 17.9742 12.6324 18.1733 12.5589 18.3592C12.4855 18.5452 12.3768 18.714 12.2391 18.856C12.1015 18.9979 11.9377 19.1101 11.7575 19.1858C11.5772 19.2615 11.384 19.2993 11.1894 19.2969C10.9948 19.2993 10.8016 19.2615 10.6214 19.1858C10.4411 19.1101 10.2773 18.9979 10.1397 18.856C10.002 18.714 9.89329 18.5452 9.81987 18.3592C9.74645 18.1733 9.70982 17.9742 9.71213 17.7734V12.1875M9.21971 3.55469C9.21971 4.95697 8.11738 6.09375 6.75758 6.09375C5.39779 6.09375 4.29546 4.95697 4.29546 3.55469C4.29546 2.1524 5.39779 1.01562 6.75758 1.01562C8.11738 1.01562 9.21971 2.1524 9.21971 3.55469Z" stroke="#85B6FF" stroke-width="1.25" stroke-miterlimit="10" stroke-linecap="round"/>
</svg>
