<svg width="20" height="20" viewBox="0 0 20 20" fill="none" xmlns="http://www.w3.org/2000/svg">
<path d="M9.99999 1.66666C5.39999 1.66666 1.66666 5.39999 1.66666 9.99999C1.66666 14.6 5.39999 18.3333 9.99999 18.3333C14.6 18.3333 18.3333 14.6 18.3333 9.99999C18.3333 5.39999 14.6 1.66666 9.99999 1.66666ZM9.99999 4.99999C11.6083 4.99999 12.9167 6.30832 12.9167 7.91666C12.9167 9.52499 11.6083 10.8333 9.99999 10.8333C8.39166 10.8333 7.08332 9.52499 7.08332 7.91666C7.08332 6.30832 8.39166 4.99999 9.99999 4.99999ZM9.99999 16.6667C8.30832 16.6667 6.30832 15.9833 4.88332 14.2667C6.34299 13.1214 8.14467 12.499 9.99999 12.499C11.8553 12.499 13.657 13.1214 15.1167 14.2667C13.6917 15.9833 11.6917 16.6667 9.99999 16.6667Z" fill="#85B6FF"/>
</svg>
