<svg width="20" height="21" viewBox="0 0 20 21" fill="none" xmlns="http://www.w3.org/2000/svg">
<path d="M16.875 5.05V4.44286C16.8736 3.96022 16.6756 3.49774 16.3242 3.15646C15.9729 2.81518 15.4968 2.62283 15 2.62143H2.5C2.00316 2.62283 1.52709 2.81518 1.17577 3.15646C0.82445 3.49774 0.626443 3.96022 0.625 4.44286V14.1571C0.626443 14.6398 0.82445 15.1023 1.17577 15.4435C1.52709 15.7848 2.00316 15.9772 2.5 15.9786H3.125" stroke="#85B6FF" stroke-width="1.25" stroke-linejoin="round"/>
<path d="M17.5785 5.65714H5.54648C4.55431 5.65714 3.75 6.43847 3.75 7.40229V16.662C3.75 17.6258 4.55431 18.4071 5.54648 18.4071H17.5785C18.5707 18.4071 19.375 17.6258 19.375 16.662V7.40229C19.375 6.43847 18.5707 5.65714 17.5785 5.65714Z" stroke="#85B6FF" stroke-width="1.25" stroke-linejoin="round"/>
<path d="M14.5672 10.2938C15.231 10.2938 15.7691 9.77479 15.7691 9.13454C15.7691 8.4943 15.231 7.97528 14.5672 7.97528C13.9034 7.97528 13.3652 8.4943 13.3652 9.13454C13.3652 9.77479 13.9034 10.2938 14.5672 10.2938Z" stroke="#85B6FF" stroke-width="1.25" stroke-miterlimit="10"/>
<path d="M13.3652 14.9225L9.96094 11.6443C9.74331 11.4354 9.45222 11.3145 9.14642 11.306C8.84062 11.2975 8.54287 11.402 8.31328 11.5984L3.75 15.5095M10.3605 18.4071L14.993 13.9397C15.2061 13.7355 15.4896 13.6152 15.7887 13.6021C16.0878 13.589 16.3813 13.684 16.6125 13.8687L19.375 16.089" stroke="#85B6FF" stroke-width="1.25" stroke-linecap="round" stroke-linejoin="round"/>
</svg>
