<svg width="20" height="20" viewBox="0 0 20 20" fill="none" xmlns="http://www.w3.org/2000/svg">
<path d="M4.67917 16.6667C4.30694 16.6667 3.98944 16.5356 3.72667 16.2733C3.46444 16.0111 3.33333 15.6936 3.33333 15.3208V4.67918C3.33333 4.30695 3.46444 3.98945 3.72667 3.72668C3.98889 3.46445 4.30639 3.33334 4.67917 3.33334H15.3208C15.6931 3.33334 16.0106 3.46445 16.2733 3.72668C16.5356 3.9889 16.6667 4.3064 16.6667 4.67918V9.63751C16.5206 9.58751 16.3806 9.54668 16.2467 9.51501C16.1133 9.4839 15.9756 9.45279 15.8333 9.42168V4.68001C15.8333 4.55168 15.78 4.4339 15.6733 4.32668C15.5661 4.22001 15.4486 4.16668 15.3208 4.16668H4.67917C4.55139 4.16668 4.43389 4.22001 4.32667 4.32668C4.22 4.4339 4.16667 4.5514 4.16667 4.67918V15.3208C4.16667 15.4486 4.22 15.5661 4.32667 15.6733C4.43389 15.78 4.55139 15.8333 4.67917 15.8333H9.40083C9.42083 15.9889 9.44666 16.1336 9.47833 16.2675C9.51 16.4008 9.55083 16.5339 9.60083 16.6667H4.67917ZM4.16667 15V15.8333V4.16668V9.42168V9.35918V15ZM6.25 13.5583H9.55C9.58055 13.4156 9.62222 13.2775 9.675 13.1442L9.84167 12.7242H6.25V13.5583ZM6.25 10.4167H11.7333C12.0072 10.2245 12.2767 10.0614 12.5417 9.92751C12.8078 9.79418 13.0931 9.68973 13.3975 9.61418V9.58334H6.25V10.4167ZM6.25 7.27501H13.75V6.44168H6.25V7.27501ZM15 18.43C14.0717 18.43 13.2839 18.1067 12.6367 17.46C11.9894 16.8133 11.6661 16.0253 11.6667 15.0958C11.6667 14.1681 11.99 13.3806 12.6367 12.7333C13.2833 12.0861 14.0711 11.7625 15 11.7625C15.9283 11.7625 16.7161 12.0861 17.3633 12.7333C18.0106 13.3806 18.3339 14.1681 18.3333 15.0958C18.3333 16.0247 18.01 16.8125 17.3633 17.4592C16.7156 18.1058 15.9278 18.43 15 18.43ZM14.6792 17.5H15.3208V15.4167H17.4042V14.775H15.3208V12.6917H14.6792V14.775H12.5958V15.4167H14.6792V17.5Z" fill="#85B6FF"/>
</svg>
