<svg width="20" height="21" viewBox="0 0 20 21" fill="none" xmlns="http://www.w3.org/2000/svg">
<g clip-path="url(#clip0_12_146)">
<path fill-rule="evenodd" clip-rule="evenodd" d="M1.66667 10.5143C1.66667 6.04327 5.3975 2.41904 10 2.41904C14.6025 2.41904 18.3333 6.04327 18.3333 10.5143C18.3333 14.9853 14.6025 18.6095 10 18.6095C5.3975 18.6095 1.66667 14.9853 1.66667 10.5143ZM6.03917 15.7244L6.4225 13.486C6.4874 13.108 6.68825 12.7646 6.98931 12.5169C7.29038 12.2692 7.67214 12.1333 8.06667 12.1333H11.9333C12.3277 12.1335 12.7093 12.2695 13.0102 12.5171C13.3111 12.7648 13.5118 13.1081 13.5767 13.486L13.9608 15.7244C12.8148 16.5488 11.426 16.9927 10 16.9905C8.57399 16.9928 7.18513 16.5488 6.03917 15.7244ZM7.5 10.5143V8.66047C7.5 8.58536 7.52152 8.51173 7.56214 8.44783C7.60275 8.38392 7.66088 8.33226 7.73 8.29861L11.8967 6.2748C11.9602 6.24388 12.0308 6.22925 12.1018 6.2323C12.1728 6.23536 12.2418 6.256 12.3022 6.29226C12.3627 6.32852 12.4126 6.3792 12.4472 6.43948C12.4818 6.49976 12.5 6.56763 12.5 6.63666V10.5143H7.5Z" fill="#85B6FF"/>
</g>
<defs>
<clipPath id="clip0_12_146">
<rect width="20" height="19.4286" fill="white" transform="translate(0 0.799988)"/>
</clipPath>
</defs>
</svg>
