<svg width="20" height="21" viewBox="0 0 20 21" fill="none" xmlns="http://www.w3.org/2000/svg">
<g clip-path="url(#clip0_13_172)">
<path fill-rule="evenodd" clip-rule="evenodd" d="M9.99999 3.19998C10.221 3.19998 10.433 3.28527 10.5892 3.43709C10.7455 3.5889 10.8333 3.79481 10.8333 4.00951V4.81903H17.5C17.721 4.81903 17.933 4.90432 18.0892 5.05613C18.2455 5.20795 18.3333 5.41385 18.3333 5.62855C18.3333 5.84325 18.2455 6.04916 18.0892 6.20097C17.933 6.35279 17.721 6.43808 17.5 6.43808V13.7238C17.721 13.7238 17.933 13.8091 18.0892 13.9609C18.2455 14.1127 18.3333 14.3186 18.3333 14.5333C18.3333 14.748 18.2455 14.9539 18.0892 15.1057C17.933 15.2576 17.721 15.3428 17.5 15.3428H13.6783L14.7558 16.3896C14.9076 16.5422 14.9916 16.7467 14.9897 16.959C14.9878 17.1712 14.9002 17.3743 14.7457 17.5244C14.5912 17.6744 14.3822 17.7596 14.1637 17.7614C13.9452 17.7633 13.7347 17.6817 13.5775 17.5342L11.3217 15.3428H8.67832L6.42249 17.5342C6.26532 17.6817 6.05482 17.7633 5.83632 17.7614C5.61782 17.7596 5.40881 17.6744 5.25431 17.5244C5.0998 17.3743 5.01216 17.1712 5.01026 16.959C5.00836 16.7467 5.09236 16.5422 5.24416 16.3896L6.32166 15.3428H2.49999C2.27898 15.3428 2.06701 15.2576 1.91073 15.1057C1.75445 14.9539 1.66666 14.748 1.66666 14.5333C1.66666 14.3186 1.75445 14.1127 1.91073 13.9609C2.06701 13.8091 2.27898 13.7238 2.49999 13.7238V6.43808C2.27898 6.43808 2.06701 6.35279 1.91073 6.20097C1.75445 6.04916 1.66666 5.84325 1.66666 5.62855C1.66666 5.41385 1.75445 5.20795 1.91073 5.05613C2.06701 4.90432 2.27898 4.81903 2.49999 4.81903H9.16666V4.00951C9.16666 3.79481 9.25445 3.5889 9.41073 3.43709C9.56701 3.28527 9.77898 3.19998 9.99999 3.19998ZM15.8333 13.7238V6.43808H4.16666V13.7238H15.8333Z" fill="#85B6FF"/>
</g>
<defs>
<clipPath id="clip0_13_172">
<rect width="20" height="19.4286" fill="white" transform="translate(0 0.771423)"/>
</clipPath>
</defs>
</svg>
