<svg width="30" height="84" viewBox="0 0 30 84" fill="none" xmlns="http://www.w3.org/2000/svg">
<path d="M15.401 2.07716L29.9197 43.0386H0L15.401 2.07716Z" fill="url(#paint0_linear_80_58)"/>
<path d="M23.8235 46.0728C23.8235 44.7778 23.8235 43.7971 23.8235 42.2991C23.3357 41.1027 22.0777 38.6444 21.1764 37.7288C20.2752 36.8131 19.707 35.9487 18.5294 35.4531C17.3518 34.9576 16.2746 34.6946 15 34.6946C13.7254 34.6946 12.6481 34.9576 11.4706 35.4531C10.293 35.9487 9.72476 36.8131 8.82348 37.7288C7.92221 38.6444 6.17644 40.782 6.17644 42.2991C5.68867 43.4955 6.17643 44.7778 6.17643 46.0728H23.8235Z" fill="#131313"/>
<path d="M23.8235 46.0728C23.8235 44.7778 23.8235 43.7971 23.8235 42.2991C23.3357 41.1027 22.0777 38.6444 21.1764 37.7288C20.2752 36.8131 19.707 35.9487 18.5294 35.4531C17.3518 34.9576 16.2746 34.6946 15 34.6946C13.7254 34.6946 12.6481 34.9576 11.4706 35.4531C10.293 35.9487 9.72476 36.8131 8.82348 37.7288C7.92221 38.6444 6.17644 40.782 6.17644 42.2991C5.68867 43.4955 6.17643 44.7778 6.17643 46.0728H23.8235Z" fill="url(#paint1_linear_80_58)"/>
<path d="M28.2353 36.9702C27.3529 35.4531 28.2353 36.2117 26.4706 37.7288C25.6425 38.4952 25.3614 39.0887 24.7059 40.0044C24.0504 40.9201 23.8332 41.1027 23.4785 42.2991C23.1238 43.4955 22.9412 44.7778 22.9412 46.0728L30 46.0728V43.0386L28.2353 36.9702Z" fill="url(#paint2_linear_80_58)"/>
<path d="M1.76471 37.0392C2.64706 35.521 1.76471 36.2801 3.52941 37.7984C4.35753 38.5654 4.63865 39.1593 5.29412 40.0757C5.94959 40.9921 6.16676 41.1748 6.5215 42.3721C6.87624 43.5694 7.05882 44.8527 7.05882 46.1486L0 46.1486V43.0386L1.76471 37.0392Z" fill="url(#paint3_linear_80_58)"/>
<path d="M0 44.5557H30V84H0V44.5557Z" fill="url(#paint4_linear_80_58)"/>
<path d="M0.423827 41.5215H29.5686L30 43.7971V46.0728H0V43.7971L0.423827 41.5215Z" fill="#0D1DAA"/>
<path d="M15.1952 0L17.4874 7.96472L13.1899 7.96472L15.1952 0Z" fill="#0D1DAA"/>
<defs>
<linearGradient id="paint0_linear_80_58" x1="-5.88528e-08" y1="35.7593" x2="31.1162" y2="39.9469" gradientUnits="userSpaceOnUse">
<stop/>
<stop offset="0.42" stop-color="#3F3F3F"/>
<stop offset="0.585" stop-color="#0D0D0D"/>
<stop offset="1" stop-color="#282727"/>
</linearGradient>
<linearGradient id="paint1_linear_80_58" x1="-2.59952" y1="44.8" x2="30" y2="44.7899" gradientUnits="userSpaceOnUse">
<stop/>
<stop offset="0.0001" stop-color="#2A2A2A"/>
<stop offset="0.191" stop-color="#3B3B3B"/>
<stop offset="0.1911" stop-color="#2E2E2E"/>
<stop offset="0.513157" stop-color="#252525"/>
<stop offset="0.961" stop-color="#848383"/>
<stop offset="0.996" stop-color="#2C2C2C"/>
</linearGradient>
<linearGradient id="paint2_linear_80_58" x1="4.97385e-09" y1="41.4526" x2="30.009" y2="41.8266" gradientUnits="userSpaceOnUse">
<stop offset="0.3159" stop-color="#2D2D2D"/>
<stop offset="0.506" stop-color="#3B3A3A"/>
<stop offset="0.711" stop-color="#837E7E"/>
<stop offset="0.931" stop-color="#232323"/>
<stop offset="0.996" stop-color="#424242"/>
</linearGradient>
<linearGradient id="paint3_linear_80_58" x1="1.02699e-08" y1="41.5754" x2="30.0054" y2="41.8659" gradientUnits="userSpaceOnUse">
<stop stop-color="#2C2C2C"/>
<stop offset="0.286" stop-color="#515151"/>
<stop offset="0.466" stop-color="#404040"/>
<stop offset="0.711" stop-color="#837E7E"/>
<stop offset="0.846" stop-color="#4A4A4A"/>
</linearGradient>
<linearGradient id="paint4_linear_80_58" x1="0" y1="45.2308" x2="30" y2="45.2308" gradientUnits="userSpaceOnUse">
<stop/>
<stop offset="0.0001" stop-color="#363636"/>
<stop offset="0.191" stop-color="#4F4C4C"/>
<stop offset="0.226" stop-color="#101010"/>
<stop offset="0.341" stop-color="#2A2A2A"/>
<stop offset="0.486" stop-color="#565656"/>
<stop offset="0.656558" stop-color="#262626"/>
<stop offset="0.795565" stop-color="#040404"/>
<stop offset="0.795665" stop-color="#4E4E4E"/>
<stop offset="0.898317" stop-color="#3F3F3F"/>
<stop offset="1" stop-color="#343434"/>
</linearGradient>
</defs>
</svg>
