<svg width="19" height="17" viewBox="0 0 19 17" fill="none" xmlns="http://www.w3.org/2000/svg">
<path d="M5.41026 3.90635C5.41026 4.02542 5.3689 4.14181 5.29142 4.24081C5.21394 4.33981 5.10381 4.41697 4.97497 4.46254C4.84612 4.5081 4.70435 4.52002 4.56756 4.49679C4.43078 4.47357 4.30514 4.41623 4.20653 4.33204C4.10791 4.24785 4.04076 4.14058 4.01355 4.0238C3.98634 3.90702 4.00031 3.78598 4.05368 3.67598C4.10704 3.56597 4.19742 3.47195 4.31338 3.4058C4.42934 3.33966 4.56567 3.30435 4.70513 3.30435C4.89214 3.30435 5.07149 3.36777 5.20373 3.48067C5.33597 3.59357 5.41026 3.74669 5.41026 3.90635ZM9.5 3.30435C9.36054 3.30435 9.22421 3.33966 9.10825 3.4058C8.99229 3.47195 8.90192 3.56597 8.84855 3.67598C8.79518 3.78598 8.78121 3.90702 8.80842 4.0238C8.83563 4.14058 8.90279 4.24785 9.0014 4.33204C9.10001 4.41623 9.22566 4.47357 9.36244 4.49679C9.49922 4.52002 9.641 4.5081 9.76984 4.46254C9.89869 4.41697 10.0088 4.33981 10.0863 4.24081C10.1638 4.14181 10.2051 4.02542 10.2051 3.90635C10.2051 3.74669 10.1308 3.59357 9.9986 3.48067C9.86636 3.36777 9.68701 3.30435 9.5 3.30435ZM14.2949 4.50836C14.4343 4.50836 14.5707 4.47305 14.6866 4.40691C14.8026 4.34076 14.893 4.24674 14.9463 4.13673C14.9997 4.02673 15.0137 3.90569 14.9865 3.78891C14.9592 3.67213 14.8921 3.56486 14.7935 3.48067C14.6949 3.39648 14.5692 3.33914 14.4324 3.31592C14.2957 3.29269 14.1539 3.30461 14.025 3.35017C13.8962 3.39574 13.7861 3.4729 13.7086 3.5719C13.6311 3.6709 13.5897 3.78729 13.5897 3.90635C13.5897 4.06602 13.664 4.21914 13.7963 4.33204C13.9285 4.44494 14.1079 4.50836 14.2949 4.50836ZM4.70513 7.39799C4.56567 7.39799 4.42934 7.4333 4.31338 7.49945C4.19742 7.5656 4.10704 7.65962 4.05368 7.76962C4.00031 7.87962 3.98634 8.00067 4.01355 8.11745C4.04076 8.23422 4.10791 8.34149 4.20653 8.42568C4.30514 8.50988 4.43078 8.56721 4.56756 8.59044C4.70435 8.61367 4.84612 8.60175 4.97497 8.55618C5.10381 8.51062 5.21394 8.43346 5.29142 8.33446C5.3689 8.23546 5.41026 8.11907 5.41026 8C5.41026 7.84034 5.33597 7.68722 5.20373 7.57432C5.07149 7.46142 4.89214 7.39799 4.70513 7.39799ZM9.5 7.39799C9.36054 7.39799 9.22421 7.4333 9.10825 7.49945C8.99229 7.5656 8.90192 7.65962 8.84855 7.76962C8.79518 7.87962 8.78121 8.00067 8.80842 8.11745C8.83563 8.23422 8.90279 8.34149 9.0014 8.42568C9.10001 8.50988 9.22566 8.56721 9.36244 8.59044C9.49922 8.61367 9.641 8.60175 9.76984 8.55618C9.89869 8.51062 10.0088 8.43346 10.0863 8.33446C10.1638 8.23546 10.2051 8.11907 10.2051 8C10.2051 7.84034 10.1308 7.68722 9.9986 7.57432C9.86636 7.46142 9.68701 7.39799 9.5 7.39799ZM14.2949 7.39799C14.1554 7.39799 14.0191 7.4333 13.9031 7.49945C13.7872 7.5656 13.6968 7.65962 13.6434 7.76962C13.59 7.87962 13.5761 8.00067 13.6033 8.11745C13.6305 8.23422 13.6977 8.34149 13.7963 8.42568C13.8949 8.50988 14.0205 8.56721 14.1573 8.59044C14.2941 8.61367 14.4359 8.60175 14.5647 8.55618C14.6936 8.51062 14.8037 8.43346 14.8812 8.33446C14.9586 8.23546 15 8.11907 15 8C15 7.84034 14.9257 7.68722 14.7935 7.57432C14.6612 7.46142 14.4819 7.39799 14.2949 7.39799ZM4.70513 11.4916C4.56567 11.4916 4.42934 11.5269 4.31338 11.5931C4.19742 11.6592 4.10704 11.7533 4.05368 11.8633C4.00031 11.9733 3.98634 12.0943 4.01355 12.2111C4.04076 12.3279 4.10791 12.4351 4.20653 12.5193C4.30514 12.6035 4.43078 12.6609 4.56756 12.6841C4.70435 12.7073 4.84612 12.6954 4.97497 12.6498C5.10381 12.6043 5.21394 12.5271 5.29142 12.4281C5.3689 12.3291 5.41026 12.2127 5.41026 12.0936C5.41026 11.934 5.33597 11.7809 5.20373 11.668C5.07149 11.5551 4.89214 11.4916 4.70513 11.4916ZM9.5 11.4916C9.36054 11.4916 9.22421 11.5269 9.10825 11.5931C8.99229 11.6592 8.90192 11.7533 8.84855 11.8633C8.79518 11.9733 8.78121 12.0943 8.80842 12.2111C8.83563 12.3279 8.90279 12.4351 9.0014 12.5193C9.10001 12.6035 9.22566 12.6609 9.36244 12.6841C9.49922 12.7073 9.641 12.6954 9.76984 12.6498C9.89869 12.6043 10.0088 12.5271 10.0863 12.4281C10.1638 12.3291 10.2051 12.2127 10.2051 12.0936C10.2051 11.934 10.1308 11.7809 9.9986 11.668C9.86636 11.5551 9.68701 11.4916 9.5 11.4916ZM14.2949 11.4916C14.1554 11.4916 14.0191 11.5269 13.9031 11.5931C13.7872 11.6592 13.6968 11.7533 13.6434 11.8633C13.59 11.9733 13.5761 12.0943 13.6033 12.2111C13.6305 12.3279 13.6977 12.4351 13.7963 12.5193C13.8949 12.6035 14.0205 12.6609 14.1573 12.6841C14.2941 12.7073 14.4359 12.6954 14.5647 12.6498C14.6936 12.6043 14.8037 12.5271 14.8812 12.4281C14.9586 12.3291 15 12.2127 15 12.0936C15 11.934 14.9257 11.7809 14.7935 11.668C14.6612 11.5551 14.4819 11.4916 14.2949 11.4916Z" fill="#85B6FF"/>
</svg>
