<svg width="23" height="20" viewBox="0 0 23 20" fill="none" xmlns="http://www.w3.org/2000/svg">
<path d="M18.6875 2.875H4.3125C4.02656 2.875 3.75234 2.97291 3.55015 3.1472C3.34796 3.32149 3.23438 3.55787 3.23438 3.80435V16.1957C3.23438 16.4421 3.34796 16.6785 3.55015 16.8528C3.75234 17.0271 4.02656 17.125 4.3125 17.125H18.6875C18.9734 17.125 19.2477 17.0271 19.4498 16.8528C19.652 16.6785 19.7656 16.4421 19.7656 16.1957V3.80435C19.7656 3.55787 19.652 3.32149 19.4498 3.1472C19.2477 2.97291 18.9734 2.875 18.6875 2.875ZM19.0469 16.1957C19.0469 16.2778 19.009 16.3566 18.9416 16.4147C18.8742 16.4728 18.7828 16.5054 18.6875 16.5054H4.3125C4.21719 16.5054 4.12578 16.4728 4.05838 16.4147C3.99099 16.3566 3.95312 16.2778 3.95312 16.1957V3.80435C3.95312 3.72219 3.99099 3.64339 4.05838 3.5853C4.12578 3.5272 4.21719 3.49457 4.3125 3.49457H18.6875C18.7828 3.49457 18.8742 3.5272 18.9416 3.5853C19.009 3.64339 19.0469 3.72219 19.0469 3.80435V16.1957Z" fill="#85B6FF"/>
</svg>
