<svg width="38" height="38" viewBox="0 0 38 38" fill="none" xmlns="http://www.w3.org/2000/svg">
<path d="M35.4598 18.6607C35.4598 27.9549 27.9316 35.4881 18.6466 35.4881V37.1548C28.8533 37.1548 37.1264 28.8741 37.1264 18.6607H35.4598ZM18.6466 35.4881C9.3615 35.4881 1.83333 27.9549 1.83333 18.6607H0.166667C0.166667 28.8741 8.43976 37.1548 18.6466 37.1548V35.4881ZM1.83333 18.6607C1.83333 9.36658 9.3615 1.83333 18.6466 1.83333V0.166667C8.43976 0.166667 0.166667 8.44736 0.166667 18.6607H1.83333ZM18.6466 1.83333C27.9316 1.83333 35.4598 9.36658 35.4598 18.6607H37.1264C37.1264 8.44736 28.8533 0.166667 18.6466 0.166667V1.83333ZM9.11782 18.6607C9.11782 19.17 9.31997 19.6586 9.68001 20.0189L10.859 18.8409C10.8114 18.7932 10.7845 18.7284 10.7845 18.6607H9.11782ZM9.68001 20.0189C10.0401 20.3793 10.5286 20.5818 11.0381 20.5818V18.9152C10.971 18.9152 10.9066 18.8885 10.859 18.8409L9.68001 20.0189ZM11.0381 20.5818C11.5476 20.5818 12.0361 20.3793 12.3961 20.0189L11.2172 18.8409C11.1695 18.8885 11.1051 18.9152 11.0381 18.9152V20.5818ZM12.3961 20.0189C12.7562 19.6586 12.9583 19.17 12.9583 18.6607H11.2917C11.2917 18.7284 11.2648 18.7932 11.2172 18.8409L12.3961 20.0189ZM12.9583 18.6607C12.9583 18.1514 12.7562 17.6628 12.3961 17.3025L11.2172 18.4805C11.2648 18.5282 11.2917 18.593 11.2917 18.6607H12.9583ZM12.3961 17.3025C12.0361 16.9421 11.5476 16.7396 11.0381 16.7396V18.4063C11.1051 18.4063 11.1695 18.4329 11.2172 18.4805L12.3961 17.3025ZM11.0381 16.7396C10.5286 16.7396 10.0401 16.9421 9.68001 17.3025L10.859 18.4805C10.9066 18.4329 10.971 18.4063 11.0381 18.4063V16.7396ZM9.68001 17.3025C9.31997 17.6628 9.11782 18.1514 9.11782 18.6607H10.7845C10.7845 18.593 10.8114 18.5282 10.859 18.4805L9.68001 17.3025ZM16.7263 18.6607C16.7263 19.17 16.9284 19.6586 17.2885 20.0189L18.4675 18.8409C18.4198 18.7932 18.393 18.7284 18.393 18.6607H16.7263ZM17.2885 20.0189C17.6486 20.3793 18.1371 20.5818 18.6465 20.5818V18.9152C18.5795 18.9152 18.5151 18.8885 18.4675 18.8409L17.2885 20.0189ZM18.6465 20.5818C19.156 20.5818 19.6445 20.3793 20.0046 20.0189L18.8256 18.8409C18.778 18.8885 18.7136 18.9152 18.6465 18.9152V20.5818ZM20.0046 20.0189C20.3647 19.6586 20.5668 19.17 20.5668 18.6607H18.9001C18.9001 18.7284 18.8733 18.7932 18.8256 18.8409L20.0046 20.0189ZM20.5668 18.6607C20.5668 18.1514 20.3647 17.6628 20.0046 17.3025L18.8256 18.4805C18.8733 18.5282 18.9001 18.593 18.9001 18.6607H20.5668ZM20.0046 17.3025C19.6445 16.9421 19.156 16.7396 18.6465 16.7396V18.4063C18.7136 18.4063 18.778 18.4329 18.8256 18.4805L20.0046 17.3025ZM18.6465 16.7396C18.1371 16.7396 17.6486 16.9421 17.2885 17.3025L18.4675 18.4805C18.5151 18.4329 18.5795 18.4063 18.6465 18.4063V16.7396ZM17.2885 17.3025C16.9284 17.6628 16.7263 18.1514 16.7263 18.6607H18.393C18.393 18.593 18.4198 18.5282 18.4675 18.4805L17.2885 17.3025ZM24.3348 18.6607C24.3348 19.17 24.5369 19.6586 24.897 20.0189L26.0759 18.8409C26.0283 18.7932 26.0014 18.7284 26.0014 18.6607H24.3348ZM24.897 20.0189C25.257 20.3793 25.7455 20.5818 26.255 20.5818V18.9152C26.188 18.9152 26.1236 18.8885 26.0759 18.8409L24.897 20.0189ZM26.255 20.5818C26.7645 20.5818 27.253 20.3793 27.6131 20.0189L26.4341 18.8409C26.3865 18.8885 26.3221 18.9152 26.255 18.9152V20.5818ZM27.6131 20.0189C27.9731 19.6586 28.1753 19.17 28.1753 18.6607H26.5086C26.5086 18.7284 26.4817 18.7932 26.4341 18.8409L27.6131 20.0189ZM28.1753 18.6607C28.1753 18.1514 27.9731 17.6628 27.6131 17.3025L26.4341 18.4805C26.4817 18.5282 26.5086 18.593 26.5086 18.6607H28.1753ZM27.6131 17.3025C27.253 16.9421 26.7645 16.7396 26.255 16.7396V18.4063C26.3221 18.4063 26.3865 18.4329 26.4341 18.4805L27.6131 17.3025ZM26.255 16.7396C25.7455 16.7396 25.257 16.9421 24.897 17.3025L26.0759 18.4805C26.1236 18.4329 26.188 18.4063 26.255 18.4063V16.7396ZM24.897 17.3025C24.5369 17.6628 24.3348 18.1514 24.3348 18.6607H26.0014C26.0014 18.593 26.0283 18.5282 26.0759 18.4805L24.897 17.3025Z" fill="#999999"/>
</svg>
