<svg width="31" height="4" viewBox="0 0 31 4" fill="none" xmlns="http://www.w3.org/2000/svg">
<path fill-rule="evenodd" clip-rule="evenodd" d="M2.06667 0C1.79527 0 1.52653 0.0517315 1.27579 0.152241C1.02505 0.25275 0.79722 0.400069 0.605313 0.585786C0.413405 0.771504 0.261175 0.991982 0.157316 1.23463C0.0534559 1.47728 0 1.73736 0 2C0 2.26264 0.0534559 2.52272 0.157316 2.76537C0.261175 3.00802 0.413405 3.2285 0.605313 3.41421C0.79722 3.59993 1.02505 3.74725 1.27579 3.84776C1.52653 3.94827 1.79527 4 2.06667 4L2.06667 2V0ZM2.0768 0H28.9232V4H2.0768V0ZM29.7242 3.84776C29.4735 3.94827 29.2047 4 28.9333 4L28.9333 2L28.9333 0C29.2047 0 29.4735 0.0517315 29.7242 0.152241C29.975 0.25275 30.2028 0.400069 30.3947 0.585786C30.5866 0.771504 30.7388 0.991982 30.8427 1.23463C30.9465 1.47728 31 1.73736 31 2C31 2.26264 30.9465 2.52272 30.8427 2.76537C30.7388 3.00802 30.5866 3.2285 30.3947 3.41421C30.2028 3.59993 29.975 3.74725 29.7242 3.84776Z" fill="#6B6B6B"/>
</svg>
