<svg width="11" height="11" viewBox="0 0 11 11" fill="none" xmlns="http://www.w3.org/2000/svg">
<path fill-rule="evenodd" clip-rule="evenodd" d="M0 5.58286C0 8.32228 2.28 10.5371 5.1 10.5371C7.92 10.5371 10.2 8.32228 10.2 5.58286C10.2 2.84343 7.92 0.628571 5.1 0.628571C2.28 0.628571 0 2.84343 0 5.58286ZM0.6 5.58286C0.6 3.164 2.61 1.21143 5.1 1.21143C7.59 1.21143 9.6 3.164 9.6 5.58286C9.6 8.00171 7.59 9.95428 5.1 9.95428C2.61 9.95428 0.6 8.00171 0.6 5.58286ZM2.1 4.92229L5.01 7.74914L7.92 4.92229L7.5 4.51428L5.01 6.93314L2.52 4.51428L2.1 4.92229Z" fill="#85B6FF"/>
</svg>
